<?xml version="1.0" encoding="UTF-8" standalone="no"?>
<!-- Created with Inkscape (http://www.inkscape.org/) -->

<svg
   xmlns:dc="http://purl.org/dc/elements/1.1/"
   xmlns:cc="http://creativecommons.org/ns#"
   xmlns:rdf="http://www.w3.org/1999/02/22-rdf-syntax-ns#"
   xmlns:svg="http://www.w3.org/2000/svg"
   xmlns="http://www.w3.org/2000/svg"
   xmlns:sodipodi="http://sodipodi.sourceforge.net/DTD/sodipodi-0.dtd"
   xmlns:inkscape="http://www.inkscape.org/namespaces/inkscape"
   width="210mm"
   height="297mm"
   viewBox="0 0 210 297"
   version="1.1"
   id="svg8"
   inkscape:version="0.92.3 (2405546, 2018-03-11)"
   sodipodi:docname="track.svg">
  <defs
     id="defs2" />
  <sodipodi:namedview
     id="base"
     pagecolor="#ffffff"
     bordercolor="#666666"
     borderopacity="1.0"
     inkscape:pageopacity="0.0"
     inkscape:pageshadow="2"
     inkscape:zoom="2.8"
     inkscape:cx="123.34088"
     inkscape:cy="82.083905"
     inkscape:document-units="mm"
     inkscape:current-layer="layer1"
     showgrid="true"
     inkscape:snap-smooth-nodes="true"
     inkscape:window-width="1600"
     inkscape:window-height="861"
     inkscape:window-x="0"
     inkscape:window-y="0"
     inkscape:window-maximized="1">
    <inkscape:grid
       type="xygrid"
       id="grid817"
       units="mm"
       spacingx="0.5"
       spacingy="0.5"
       empspacing="8" />
  </sodipodi:namedview>
  <metadata
     id="metadata5">
    <rdf:RDF>
      <cc:Work
         rdf:about="">
        <dc:format>image/svg+xml</dc:format>
        <dc:type
           rdf:resource="http://purl.org/dc/dcmitype/StillImage" />
        <dc:title />
      </cc:Work>
    </rdf:RDF>
  </metadata>
  <g
     inkscape:label="Layer 1"
     inkscape:groupmode="layer"
     id="layer1">
    <rect
       style="opacity:1;fill:#c0c0c0;fill-opacity:1;stroke:none;stroke-width:4;stroke-linecap:square;stroke-miterlimit:4;stroke-dasharray:none;stroke-dashoffset:0;stroke-opacity:1"
       id="rect820"
       width="48"
       height="48"
       x="-4.0000019"
       y="253.00002" />
    <rect
       style="opacity:1;fill:#ffffff;fill-opacity:1;stroke:none;stroke-width:0.16562499;stroke-linecap:butt;stroke-linejoin:miter;stroke-miterlimit:4;stroke-dasharray:none;stroke-dashoffset:0;stroke-opacity:1"
       id="rect10"
       width="43"
       height="43.000008"
       x="-1.500002"
       y="255.50002"
       inkscape:export-xdpi="406.39993"
       inkscape:export-ydpi="406.39993" />
    <path
       style="opacity:1;fill:none;stroke:#000000;stroke-width:4.00000048;stroke-linecap:butt;stroke-linejoin:miter;stroke-miterlimit:3.4000001;stroke-dasharray:none;stroke-opacity:1"
       d="M 7.999998,259 C 4.499999,259 2,261.5 2,265.00002 V 289 c 0,3.50001 2.499999,6.00001 5.999998,6.00001 h 4 c 3.5,0 6,-2.5 6,-6.00001 0,-6.53752 -7.999999,-5.5 -7.999999,-11.99999 0,-3.5 2.499999,-6.00001 5.999999,-6.00001 10,0 8,24.00001 18,24.00001 2.265764,0 3.999999,-1.751 3.999999,-4 L 37.999998,281 c 0,-6 -12,-6 -12,-11.99999 0,-2.20671 1.778529,-4 4,-4 h 2 c 1.736235,0 3,-1.26377 3,-3.00001 0,-1.72147 -1.263765,-3 -3,-3 z"
       id="path819"
       inkscape:connector-curvature="0"
       sodipodi:nodetypes="sssccssssssssssss" />
  </g>
</svg>
